<svg width="32" height="32" viewBox="0 0 32 32" fill="none" xmlns="http://www.w3.org/2000/svg">
<g clip-path="url(#clip0_325_2320)">
<path d="M30.4189 28.345C30.6589 29.155 30.7789 30.085 30.7789 31.135C29.3389 31.045 27.2689 31 24.5689 31C21.4789 31 19.2589 31.045 17.9089 31.135C17.9089 29.935 18.0139 29.005 18.2239 28.345C18.9439 28.195 19.4689 28.015 19.7989 27.805C20.1289 27.565 20.2939 27.235 20.2939 26.815C20.2939 26.455 20.0989 25.81 19.7089 24.88L18.6739 22.45C14.6839 22.45 11.0239 22.555 7.69391 22.765L7.10891 24.25C6.80891 25.09 6.65891 25.75 6.65891 26.23C6.65891 27.46 7.37891 28.165 8.81891 28.345C9.02891 29.065 9.13391 29.995 9.13391 31.135C8.11391 31.045 6.50891 31 4.31891 31C2.45891 31 1.10891 31.045 0.268906 31.135C0.268906 30.025 0.388906 29.095 0.628906 28.345C1.37891 28.225 1.97891 27.865 2.42891 27.265C2.90891 26.635 3.50891 25.435 4.22891 23.665L13.6789 0.534998C14.0989 0.444999 14.5189 0.384999 14.9389 0.354998C15.3889 0.324998 15.8689 0.309998 16.3789 0.309998L26.6839 23.395C27.3139 24.805 27.8089 25.84 28.1689 26.5C28.5589 27.16 28.9189 27.625 29.2489 27.895C29.5789 28.135 29.9689 28.285 30.4189 28.345ZM17.5489 19.93L15.1189 14.26C14.3389 12.49 13.6339 10.57 13.0039 8.5C12.4039 10.48 11.7439 12.385 11.0239 14.215L8.77391 19.93H17.5489Z" fill="#FBEED3"/>
</g>
<defs>
<clipPath id="clip0_325_2320">
<rect width="32" height="32" fill="white"/>
</clipPath>
</defs>
</svg>
